Coordinates
version=1
nRows=24
nColumns=24
inDegrees=yes

Units are S.I. units (second, meters, Newtons, ...)
Angles are in degrees.

endheader
time	pelvis_tilt	pelvis_list	pelvis_rotation	pelvis_tx	pelvis_ty	pelvis_tz	hip_flexion_r	hip_adduction_r	hip_rotation_r	knee_angle_r	ankle_angle_r	subtalar_angle_r	mtp_angle_r	hip_flexion_l	hip_adduction_l	hip_rotation_l	knee_angle_l	ankle_angle_l	subtalar_angle_l	mtp_angle_l	lumbar_extension	lumbar_bending	lumbar_rotation
      1.12883333	     -0.47976510	     -0.18507952	     -0.25253098	     -0.02716680	      0.97693026	      0.32169849	    -21.88140729	      2.89261434	     -5.02675530	      1.14319849	     16.57614064	     -0.90565178	     -4.27584466	     22.69047641	      2.24025522	      0.86574688	      4.46783363	     -1.34302908	     -7.63705806	     -2.91630407	    -11.83681281	      6.07458711	      4.80703030
      1.13300000	     -0.47556475	     -0.02855220	     -0.22319382	     -0.02121393	      0.97610401	      0.32135682	    -22.03943776	      2.68989776	     -5.16385085	      0.68915511	     16.75137443	     -0.72032771	     -4.22361053	     22.70859554	      2.49200930	      0.98513056	      4.26110906	     -1.47531619	     -7.91005082	     -2.88671849	    -11.82169093	      5.84186359	      4.79296360
      1.13716667	     -0.43832602	      0.12552762	     -0.18931449	     -0.01524795	      0.97536805	      0.32094720	    -22.18668985	      2.48077782	     -5.40994463	      0.14004777	     16.92882480	     -0.37876743	     -4.13627686	     22.70331364	      2.74846498	      1.13933498	      3.96608570	     -1.72451086	     -8.36802561	     -2.83177663	    -11.84393993	      5.65824542	      4.78731018
      1.14133333	     -0.42950649	      0.29681642	     -0.15102060	     -0.00923553	      0.97464224	      0.32054839	    -22.30130328	      2.25663597	     -5.59754780	     -0.41697207	     17.07727111	     -0.14731374	     -4.03827514	     22.74076939	      3.02020434	      1.30771948	      3.57802800	     -1.99915389	     -8.81435385	     -2.76455075	    -11.82054530	      5.42813142	      4.75889512
      1.14550000	     -0.40982015	      0.48364102	     -0.10907841	     -0.00319502	      0.97397485	      0.32013602	    -22.41171088	      2.01533886	     -5.78612852	     -1.00942361	     17.20179689	      0.07770492	     -3.92042118	     22.77487323	      3.30858210	      1.50218410	      3.11528687	     -2.33562077	     -9.32509737	     -2.68254683	    -11.81493803	      5.18624550	      4.72303573
      1.14966667	     -0.40643029	      0.67684377	     -0.06225669	      0.00287112	      0.97333589	      0.31969610	    -22.48457538	      1.76546350	     -5.96533869	     -1.64478696	     17.30056285	      0.27507170	     -3.78094860	     22.84053059	      3.60619177	      1.71172569	      2.57334954	     -2.72788386	     -9.87870033	     -2.58785643	    -11.78733497	      4.93095718	      4.67849934
      1.15383333	     -0.40031866	      0.87804089	     -0.00637575	      0.00897255	      0.97274185	      0.31924071	    -22.54897249	      1.50937503	     -6.14140682	     -2.30605353	     17.36850986	      0.45158559	     -3.62000368	     22.91347588	      3.91482990	      1.93409091	      1.96543381	     -3.17635774	    -10.47643020	     -2.48267477	    -11.75995854	      4.67013779	      4.62052725
      1.15800000	     -0.40016260	      1.08614022	      0.05341494	      0.01509655	      0.97219077	      0.31876095	    -22.58986468	      1.24475993	     -6.30842373	     -3.00258984	     17.40207842	      0.60635604	     -3.43446726	     23.00546063	      4.23280247	      2.15806040	      1.29339694	     -3.67802119	    -11.10556521	     -2.37090229	    -11.72572573	      4.39944110	      4.55732636
      1.16216667	     -0.38337582	      1.30097659	      0.12331996	      0.02124071	      0.97170236	      0.31826162	    -22.62573633	      0.97468385	     -6.49414411	     -3.74842505	     17.39178092	      0.73387718	     -3.13321775	     23.08136168	      4.56188014	      2.43673678	      0.58217020	     -4.19301019	    -11.79825847	     -2.20204175	    -11.71720626	      4.12030983	      4.48171877
      1.16633333	     -0.41929857	      1.51134449	      0.18265337	      0.02741376	      0.97120614	      0.31776968	    -22.59653916	      0.70511779	     -6.60791300	     -4.50553838	     17.35292414	      0.81565379	     -2.89581154	     23.24278601	      4.88141950	      2.61416738	     -0.21295115	     -4.78480605	    -12.41757301	     -2.09272393	    -11.62570735	      3.84963316	      4.40774159
      1.17050000	     -0.39709575	      1.74287191	      0.27664337	      0.03360904	      0.97081743	      0.31720666	    -22.61103858	      0.42340442	     -6.79313158	     -5.30872065	     17.25897445	      0.88873496	     -2.43507856	     23.32686379	      5.23901823	      2.91728452	     -1.00620053	     -5.35696660	    -13.16241289	     -1.90444284	    -11.63278071	      3.54515686	      4.30918863
      1.17466667	     -0.45211632	      1.94391086	      0.33759243	      0.03980981	      0.97040097	      0.31668811	    -22.51653194	      0.16034483	     -6.86994837	     -6.15112152	     17.11825045	      0.89720055	     -2.13499783	     23.53108977	      5.54958970	      3.05871121	     -1.88818444	     -5.97738081	    -13.75755469	     -1.81194191	    -11.51293456	      3.29238028	      4.22651382
      1.17883333	     -0.41916027	      2.17551731	      0.41838881	      0.04603334	      0.97014024	      0.31613730	    -22.50945060	     -0.12445271	     -6.97970702	     -7.00100490	     16.84775790	      0.74567306	      2.92459727	     23.61941810	      5.89934386	      3.27213152	     -2.74601256	     -6.61142601	    -14.42680877	     -0.47981067	    -11.52571129	      2.98367702	      4.15834105
      1.18300000	     -0.47923935	      2.38088087	      0.50893988	      0.05228179	      0.96980907	      0.31554808	    -22.37410163	     -0.38584954	     -7.08430016	     -7.91055403	     16.57143507	      0.74209820	      2.99252032	     23.84496131	      6.22639985	      3.42134365	     -3.70432827	     -7.12799715	    -14.96659501	     -0.51398351	    -11.39996443	      2.72307579	      4.02239946
      1.18716667	     -0.50355343	      2.59071115	      0.59635458	      0.05852793	      0.96957980	      0.31494947	    -22.25024185	     -0.65328639	     -7.17461766	     -8.87105647	     16.27783391	      0.67425410	      3.12410924	     24.01470256	      6.55847688	      3.60827187	     -4.63724485	     -7.67544843	    -15.57605127	     -0.55742055	    -11.33131572	      2.45396382	      3.91257948
      1.19133333	     -0.52606999	      2.79626388	      0.68560521	      0.06477715	      0.96940599	      0.31434434	    -22.10345900	     -0.91553667	     -7.24559683	     -9.87363736	     15.92191192	      0.56490693	      3.31857767	     24.18339526	      6.88606577	      3.78304628	     -5.58670497	     -8.17317755	    -16.13937053	     -0.61226351	    -11.26568843	      2.18551640	      3.80158016
      1.19550000	     -0.53470430	      2.99977931	      0.78545357	      0.07104023	      0.96929785	      0.31370801	    -21.95950156	     -1.17193994	     -7.31535355	    -10.89211667	     15.51855465	      0.44070169	      3.67266406	     24.34173493	      7.21904094	      3.96203240	     -6.56405824	     -8.61082333	    -16.72062813	     -0.70159674	    -11.21805056	      1.92177525	      3.68573030
      1.19966667	     -0.52265342	      3.23201164	      0.85707608	      0.07732444	      0.96928599	      0.31309219	    -21.79134932	     -1.47434821	     -7.39302571	    -11.98902806	     14.97864107	      0.18360980	      8.75335190	     24.44881501	      7.56764198	      4.09672544	     -7.49262336	     -8.97680940	    -17.18888490	     -1.87272849	    -11.19854472	      1.62051361	      3.59734212
      1.20383333	     -0.51620572	      3.42958828	      0.95134611	      0.08361554	      0.96932333	      0.31247045	    -21.61623558	     -1.72529780	     -7.43037534	    -13.07538641	     14.36724684	     -0.02110919	      8.79115887	     24.58665958	      7.88328657	      4.17717211	     -8.49106418	     -9.18964780	    -17.47744501	     -1.87963391	    -11.16324920	      1.34595492	      3.48320155
      1.20800000	     -0.53818872	      3.59282249	      1.03176825	      0.08983780	      0.96936401	      0.31180476	    -21.33882920	     -1.95902834	     -7.45821378	    -14.29081018	     13.77892064	     -0.22066106	      8.96461146	     24.74375715	      8.16943396	      4.31470238	     -9.46752651	     -9.43044354	    -17.91386591	     -1.91813482	    -11.10177660	      1.16033843	      3.35462839
      1.21216667	     -0.49510596	      3.81019924	      1.10593097	      0.09612764	      0.96955577	      0.31117644	    -21.12856123	     -2.24542701	     -7.50190389	    -15.50264893	     13.08452794	     -0.46416369	      9.07291871	     24.80512750	      8.50027203	      4.39303494	    -10.41435059	     -9.51552528	    -18.18649377	     -1.94707777	    -11.11690614	      0.85956320	      3.25540497
      1.21633333	     -0.52124956	      3.96967713	      1.17192391	      0.10233643	      0.96970551	      0.31051072	    -20.76628727	     -2.48924453	     -7.52430923	    -16.84426133	     12.35011881	     -0.71780542	      9.36866546	     24.93061645	      8.77722964	      4.52344218	    -11.33881210	     -9.59983420	    -18.52131641	     -2.02784014	    -11.04093622	      0.68109917	      3.13690137
      1.22050000	     -0.45153675	      4.15778798	      1.24086053	      0.10858051	      0.97003482	      0.30983699	    -20.51559397	     -2.75828249	     -7.56623517	    -18.13402624	     11.40671759	     -1.06949921	     15.49377760	     24.94549160	      9.08338703	      4.60207476	    -12.27378475	     -9.49066915	    -18.74462452	     -3.69769924	    -11.08994933	      0.45631252	      2.96678551
      1.22466667	     -0.38050483	      4.36922027	      1.28911804	      0.11480653	      0.97040962	      0.30918640	    -20.20980362	     -3.06723002	     -7.61942201	    -19.53671708	     10.54663804	     -1.30255199	     15.52391629	     24.93244032	      9.40547759	      4.67376499	    -13.15716215	     -9.36295599	    -18.97850613	     -3.69680069	    -11.15022466	      0.17268581	      2.91459704
